<?xml version="1.0" encoding="UTF-8" standalone="no"?>
<!-- Created with Inkscape (http://www.inkscape.org/) -->

<svg
   version="1.1"
   id="svg133"
   width="3468"
   height="3468"
   viewBox="0 0 3468 3468"
   sodipodi:docname="logo.svg"
   inkscape:version="1.2 (dc2aedaf03, 2022-05-15)"
   inkscape:export-filename="logo.png"
   inkscape:export-xdpi="14.173011"
   inkscape:export-ydpi="14.173011"
   xmlns:inkscape="http://www.inkscape.org/namespaces/inkscape"
   xmlns:sodipodi="http://sodipodi.sourceforge.net/DTD/sodipodi-0.dtd"
   xmlns="http://www.w3.org/2000/svg"
   xmlns:svg="http://www.w3.org/2000/svg">
  <defs
     id="defs137" />
  <sodipodi:namedview
     id="namedview135"
     pagecolor="#505050"
     bordercolor="#eeeeee"
     borderopacity="1"
     inkscape:showpageshadow="0"
     inkscape:pageopacity="0"
     inkscape:pagecheckerboard="0"
     inkscape:deskcolor="#505050"
     showgrid="false"
     inkscape:zoom="0.17041522"
     inkscape:cx="249.39086"
     inkscape:cy="1502.2132"
     inkscape:window-width="1864"
     inkscape:window-height="994"
     inkscape:window-x="0"
     inkscape:window-y="0"
     inkscape:window-maximized="1"
     inkscape:current-layer="g139" />
  <g
     inkscape:groupmode="layer"
     inkscape:label="Image"
     id="g139">
    <path
       style="fill:#2e2626;fill-opacity:1;stroke:#171616;stroke-width:59.2696;stroke-linecap:butt;stroke-linejoin:miter;stroke-dasharray:none;stroke-opacity:1"
       d="m 626.69385,2754.3505 c 0,0 -181.483,33.1436 -241.37353,127.3098 -59.89052,94.1663 -2.37749,179.6716 -62.06989,289.3765 -59.6924,109.705 -161.18929,130.7629 -161.18929,130.7629 0,0 459.99092,69.542 567.51647,-107.5539 107.52558,-177.0958 15.08586,-315.4725 15.08586,-315.4725"
       id="path1178" />
    <path
       style="fill:#2e2626;fill-opacity:1;stroke:#171616;stroke-width:59.2696;stroke-linecap:butt;stroke-linejoin:miter;stroke-dasharray:none;stroke-opacity:1"
       d="m 771.12739,2531.6574 c 0,0 -226.59902,151.1981 -145.39587,267.6959 81.20318,116.4979 293.65034,17.4067 293.65034,17.4067"
       id="path1176" />
    <path
       style="fill:#ffd9c0;fill-opacity:1;stroke:#171616;stroke-width:74.087;stroke-linecap:butt;stroke-linejoin:miter;stroke-dasharray:none;stroke-opacity:1"
       d="m 765.63644,1205.5749 c 0,0 -88.08093,-132.999 -202.68241,-4.6986 -114.60147,128.3005 29.09616,445.9241 49.95595,619.2272 20.85978,173.3034 2.12276,264.8658 32.49258,342.9838 30.36983,78.118 117.21358,-13.2802 117.21358,-13.2802"
       id="path940"
       sodipodi:nodetypes="csssc" />
    <path
       style="fill:#ffd9c0;fill-opacity:1;stroke:#171616;stroke-width:74.087;stroke-linecap:butt;stroke-linejoin:miter;stroke-dasharray:none;stroke-opacity:1"
       d="m 1174.794,340.2756 c 0,0 447.3109,-350.682239 945.3702,-279.866507 498.0594,70.815737 884.942,358.211047 997.3924,1032.205807 112.4504,673.9949 -272.9039,1622.0822 -356.9939,1767.4215 -84.0903,145.3392 -747.3013,505.1352 -881.404,551.4682 -134.1027,46.3332 -511.3337,-20.7464 -607.8209,-106.7329 -96.4872,-85.9866 -431.99871,-576.5738 -490.55882,-782.879 -58.5603,-206.3053 -66.76836,-1064.472 21.25594,-1489.5645 C 890.05931,607.23566 1174.794,340.2756 1174.794,340.2756 Z"
       id="path260" />
    <path
       style="fill:#ffd9c0;fill-opacity:1;stroke:#171616;stroke-width:74.087;stroke-linecap:butt;stroke-linejoin:miter;stroke-dasharray:none;stroke-opacity:1"
       d="m 3102.301,1584.5607 c 0,0 93.5718,-66.9099 163.8497,-22.5581 70.278,44.3518 -75.967,328.8036 -125.187,466.5858 -49.22,137.7821 -21.4825,207.5223 -76.7312,264.3277 -55.2487,56.8055 -79.3918,-38.9457 -79.3918,-38.9457"
       id="path942"
       sodipodi:nodetypes="csssc" />
    <path
       id="path946"
       style="fill:#2e2626;fill-opacity:1;stroke:#171616;stroke-width:60.5044;stroke-linecap:butt;stroke-linejoin:miter;stroke-dasharray:none;stroke-opacity:1"
       d="m 2879.0927,482.47772 -204.5738,303.89183 c 0,0 97.7613,125.63947 157.963,235.76885 60.2018,110.1293 136.3109,343.663 136.3109,343.663 0,0 12.595,194.6732 25.1901,389.6849 10.0331,155.3437 -7.0483,427.2333 -14.6413,534.9242 108.5244,-359.7998 201.0107,-821.4232 138.2161,-1197.7953 -42.7508,-256.23642 -125.3554,-456.31212 -238.465,-610.13748 z" />
    <path
       id="path944"
       style="fill:#2e2626;fill-opacity:1;stroke:#171616;stroke-width:60.5044;stroke-linecap:butt;stroke-linejoin:miter;stroke-dasharray:none;stroke-opacity:1"
       d="m 2027.4706,51.883149 c -459.5307,-19.82324 -852.6757,288.391831 -852.6757,288.391831 0,0 -284.7357,266.96068 -372.76009,692.05282 -47.70749,230.3921 -66.40743,586.2226 -64.88392,898.3146 l 8.33238,42.4698 c 0,0 154.76453,-404.8555 257.98773,-608.0754 103.2234,-203.2201 353.7679,-635.75674 353.7679,-635.75674 0,0 409.0726,-115.47881 638.4168,-115.47881 229.3441,0 619.1136,82.05285 619.1136,82.05285 L 2813.7746,402.9137 C 2634.2405,204.4802 2394.215,99.37397 2120.1639,60.408464 c -31.1287,-4.425983 -62.0578,-7.203765 -92.6933,-8.525315 z" />
    <path
       style="fill:#2e2626;fill-opacity:1;stroke:#171616;stroke-width:45.687;stroke-linecap:butt;stroke-linejoin:round;stroke-dasharray:none;stroke-opacity:1"
       d="m 2298.3924,1232.5764 18.1142,155.2173 414.7334,-77.8633 72.9669,132.2912 -41.4366,-166.0575 z"
       id="path948" />
    <path
       style="fill:#2e2626;fill-opacity:1;stroke:#171616;stroke-width:45.687;stroke-linecap:butt;stroke-linejoin:round;stroke-dasharray:none;stroke-opacity:1"
       d="m 1301.8774,1107.248 155.9248,-105.6577 396.8455,143.4147 -99.0061,105.3461 -286.9991,-200.9842 z"
       id="path950" />
    <path
       style="fill:#2e2626;fill-opacity:1;stroke:#171616;stroke-width:49.3913;stroke-linecap:round;stroke-linejoin:round;stroke-dasharray:none;stroke-opacity:1"
       d="m 2220.6139,1837.4537 c 0,0 160.8779,-186.2096 320.086,-175.624 159.208,10.5855 290.1407,144.4052 290.1407,144.4052 l -68.8344,11.5195 53.89,86.2695 c 0,0 -115.4505,-98.242 -184.5114,-105.4877 -69.061,-7.2457 -410.7709,38.9175 -410.7709,38.9175 z"
       id="path1006" />
    <path
       style="fill:#2e2626;fill-opacity:1;stroke:#171616;stroke-width:49.3913;stroke-linecap:butt;stroke-linejoin:round;stroke-dasharray:none;stroke-opacity:1"
       d="m 1164.6046,1552.719 c 0,0 129.8511,-149.506 241.7415,-127.1683 235.2034,46.9558 347.6821,289.2916 347.6821,289.2916 0,0 -214.9945,-89.2413 -309.5003,-107.9784 -94.5059,-18.737 -319.2086,48.1163 -319.2086,48.1163 l 141.5181,-76.1368 z"
       id="path1008"
       sodipodi:nodetypes="cscsccc" />
    <path
       style="fill:none;stroke:#171616;stroke-width:49.3913;stroke-linecap:butt;stroke-linejoin:miter;stroke-dasharray:none;stroke-opacity:1"
       d="m 1824.5893,1762.251 -20.2938,304.151"
       id="path1106" />
    <path
       style="fill:none;stroke:#171616;stroke-width:49.3913;stroke-linecap:butt;stroke-linejoin:miter;stroke-dasharray:none;stroke-opacity:1"
       d="m 2044.3104,1821.3207 -26.662,321.5295"
       id="path1108" />
    <path
       style="fill:none;stroke:#171616;stroke-width:49.3913;stroke-linecap:butt;stroke-linejoin:miter;stroke-dasharray:none;stroke-opacity:1"
       d="m 1625.8693,2137.3876 c 0,0 -59.6642,19.5577 -59.6642,59.8622 0,40.3044 139.3107,200.503 253.6857,215.4191 114.375,14.916 368.7966,-31.219 378.2217,-110.2144 9.4251,-78.9956 -68.7212,-59.0131 -68.7212,-59.0131"
       id="path1110" />
    <path
       style="fill:none;stroke:#171616;stroke-width:49.3913;stroke-linecap:butt;stroke-linejoin:miter;stroke-dasharray:none;stroke-opacity:1"
       d="m 1316.6236,2342.7589 c 0,0 -168.2935,-4.2172 -197.8425,65.5512 -29.549,69.7685 16.2181,160.4251 16.2181,160.4251"
       id="path1112" />
    <path
       style="fill:none;stroke:#171616;stroke-width:49.3913;stroke-linecap:butt;stroke-linejoin:miter;stroke-dasharray:none;stroke-opacity:1"
       d="m 2329.13,2548.8377 c 0,0 203.0222,51.2863 201.9183,105.4595 -1.1038,54.173 -171.4352,221.2778 -171.4352,221.2778"
       id="path1114" />
    <path
       style="fill:#cf2249;fill-opacity:1;stroke:#171616;stroke-width:49.3913;stroke-linecap:butt;stroke-linejoin:miter;stroke-dasharray:none;stroke-opacity:1"
       d="m 1266.045,2521.8644 c 0,0 196.6538,-96.657 524.5233,-15.6236 327.8694,81.0333 524.8629,178.9923 541.1656,252.893 16.303,73.9008 -331.7469,349.6067 -395.8265,374.1743 -64.0794,24.5676 -388.0995,-65.8342 -468.1423,-125.4701 -80.0427,-59.6357 -201.7201,-485.9736 -201.7201,-485.9736 z"
       id="path1116" />
    <path
       style="fill:#ffffff;stroke:#171616;stroke-width:49.3913;stroke-linecap:butt;stroke-linejoin:miter;stroke-dasharray:none;stroke-opacity:1"
       d="m 1364.2021,2580.3114 c 0,0 138.518,6.1419 404.2892,46.8426 265.7714,40.7005 465.482,149.8111 465.482,149.8111 0,0 -223.3725,237.3828 -476.3788,178.681 -253.0064,-58.7018 -393.3924,-375.3347 -393.3924,-375.3347 z"
       id="path1118"
       sodipodi:nodetypes="cscsc" />
    <ellipse
       style="fill:#ffffff;fill-opacity:1;stroke:#171616;stroke-width:49.3913;stroke-linecap:round;stroke-linejoin:round;stroke-dasharray:none;stroke-opacity:1"
       id="path1172"
       cx="636.85492"
       cy="2391.1013"
       rx="92.949181"
       ry="96.317314" />
    <ellipse
       style="fill:#ffffff;stroke:#171616;stroke-width:49.3913;stroke-linecap:round;stroke-linejoin:round;stroke-dasharray:none;stroke-opacity:1"
       id="path1174"
       cx="3092.7766"
       cy="2641.8862"
       rx="94.91629"
       ry="93.302986" />
  </g>
</svg>
